<svg width="20" height="20" viewBox="0 0 20 20" fill="none" xmlns="http://www.w3.org/2000/svg">
<path d="M19.0625 5C18.9796 5 18.9001 5.03292 18.8415 5.09153C18.7829 5.15013 18.75 5.22962 18.75 5.3125V16.5625H17.0531C15.0421 16.5627 13.0376 16.791 11.0781 17.2431C10.9552 17.2713 10.8267 17.2614 10.7095 17.2149C10.5923 17.1683 10.492 17.0873 10.4219 16.9825C11.5376 16.2995 12.8203 15.9379 14.1284 15.9375H17.8125C17.8954 15.9375 17.9749 15.9046 18.0335 15.846C18.0921 15.7874 18.125 15.7079 18.125 15.625V13.4375C18.125 13.3546 18.0921 13.2751 18.0335 13.2165C17.9749 13.1579 17.8954 13.125 17.8125 13.125C17.7296 13.125 17.6501 13.1579 17.5915 13.2165C17.5329 13.2751 17.5 13.3546 17.5 13.4375V15.3125H14.1284C12.791 15.3112 11.4762 15.6571 10.3125 16.3163V7.8125C10.3125 7.72962 10.2796 7.65013 10.221 7.59153C10.1624 7.53292 10.0829 7.5 10 7.5C9.91712 7.5 9.83763 7.53292 9.77903 7.59153C9.72042 7.65013 9.6875 7.72962 9.6875 7.8125V16.3159C8.5238 15.6568 7.20895 15.3111 5.87156 15.3125H2.5V4.0625H7.3125C7.94253 4.06291 8.54662 4.31348 8.99197 4.75913C9.43733 5.20478 9.6875 5.80903 9.6875 6.43906C9.6875 6.52194 9.72042 6.60143 9.77903 6.66003C9.83763 6.71864 9.91712 6.75156 10 6.75156C10.0829 6.75156 10.1624 6.71864 10.221 6.66003C10.2796 6.60143 10.3125 6.52194 10.3125 6.43906C10.3125 5.80903 10.5627 5.20478 11.008 4.75913C11.4534 4.31348 12.0575 4.06291 12.6875 4.0625H17.5V12.1875C17.5 12.2704 17.5329 12.3499 17.5915 12.4085C17.6501 12.4671 17.7296 12.5 17.8125 12.5C17.8954 12.5 17.9749 12.4671 18.0335 12.4085C18.0921 12.3499 18.125 12.2704 18.125 12.1875V3.75C18.125 3.66712 18.0921 3.58763 18.0335 3.52903C17.9749 3.47042 17.8954 3.4375 17.8125 3.4375H12.6875C12.1289 3.43791 11.5815 3.59406 11.1068 3.8884C10.632 4.18274 10.2488 4.60361 10 5.10375C9.75124 4.60361 9.36797 4.18274 8.89323 3.8884C8.41849 3.59406 7.87108 3.43791 7.3125 3.4375H2.1875C2.10462 3.4375 2.02513 3.47042 1.96653 3.52903C1.90792 3.58763 1.875 3.66712 1.875 3.75V15.625C1.875 15.7079 1.90792 15.7874 1.96653 15.846C2.02513 15.9046 2.10462 15.9375 2.1875 15.9375H5.87156C7.17995 15.9378 8.46284 16.2994 9.57875 16.9825C9.50839 17.087 9.40807 17.1679 9.29096 17.2144C9.17384 17.2609 9.04541 17.2709 8.9225 17.2431C6.96278 16.7909 4.95808 16.5626 2.94688 16.5625H1.25V5.3125C1.25 5.22962 1.21708 5.15013 1.15847 5.09153C1.09987 5.03292 1.02038 5 0.9375 5C0.85462 5 0.775134 5.03292 0.716529 5.09153C0.657924 5.15013 0.625 5.22962 0.625 5.3125V16.875C0.625 16.9579 0.657924 17.0374 0.716529 17.096C0.775134 17.1546 0.85462 17.1875 0.9375 17.1875H2.94688C4.91054 17.1878 6.86784 17.4108 8.78125 17.8522C9.00123 17.903 9.23089 17.8929 9.44559 17.8231C9.66029 17.7533 9.85195 17.6264 10 17.4559C10.148 17.6264 10.3397 17.7534 10.5544 17.8232C10.7691 17.893 10.9988 17.903 11.2188 17.8522C13.1322 17.4109 15.0895 17.1879 17.0531 17.1875H19.0625C19.1454 17.1875 19.2249 17.1546 19.2835 17.096C19.3421 17.0374 19.375 16.9579 19.375 16.875V5.3125C19.375 5.22962 19.3421 5.15013 19.2835 5.09153C19.2249 5.03292 19.1454 5 19.0625 5Z" fill="black"/>
<path d="M8.97594 6.12906C8.48352 5.80022 7.90463 5.6248 7.3125 5.625H3.75C3.66712 5.625 3.58763 5.65792 3.52903 5.71653C3.47042 5.77513 3.4375 5.85462 3.4375 5.9375C3.4375 6.02038 3.47042 6.09986 3.52903 6.15847C3.58763 6.21707 3.66712 6.25 3.75 6.25H7.3125C7.78171 6.24946 8.2405 6.38836 8.63063 6.64906C8.69958 6.69506 8.78399 6.71178 8.86527 6.69554C8.94656 6.67931 9.01806 6.63145 9.06406 6.5625C9.11006 6.49354 9.12678 6.40914 9.11055 6.32785C9.09432 6.24657 9.04646 6.17506 8.9775 6.12906H8.97594Z" fill="black"/>
<path d="M16.2499 5.625H12.6874C12.0947 5.62453 11.5153 5.79996 11.0224 6.12906C10.9883 6.15184 10.9589 6.18112 10.9361 6.21523C10.9133 6.24933 10.8974 6.28761 10.8894 6.32785C10.8813 6.3681 10.8813 6.40954 10.8893 6.4498C10.8972 6.49006 10.9131 6.52836 10.9358 6.5625C10.9586 6.59664 10.9879 6.62597 11.022 6.6488C11.0561 6.67162 11.0944 6.68751 11.1346 6.69555C11.1749 6.70359 11.2163 6.70362 11.2566 6.69564C11.2968 6.68767 11.3351 6.67184 11.3693 6.64906C11.7594 6.38845 12.2182 6.24956 12.6874 6.25H16.2499C16.3328 6.25 16.4123 6.21708 16.4709 6.15847C16.5295 6.09987 16.5624 6.02038 16.5624 5.9375C16.5624 5.85462 16.5295 5.77513 16.4709 5.71653C16.4123 5.65792 16.3328 5.625 16.2499 5.625Z" fill="black"/>
<path d="M8.97594 7.69156C8.48352 7.36272 7.90463 7.1873 7.3125 7.1875H3.75C3.66712 7.1875 3.58763 7.22042 3.52903 7.27903C3.47042 7.33763 3.4375 7.41712 3.4375 7.5C3.4375 7.58288 3.47042 7.66236 3.52903 7.72097C3.58763 7.77957 3.66712 7.8125 3.75 7.8125H7.3125C7.78171 7.81196 8.2405 7.95086 8.63063 8.21156C8.69958 8.25756 8.78399 8.27428 8.86527 8.25804C8.94656 8.24181 9.01806 8.19395 9.06406 8.125C9.11006 8.05604 9.12678 7.97164 9.11055 7.89035C9.09432 7.80907 9.04646 7.73756 8.9775 7.69156H8.97594Z" fill="black"/>
<path d="M16.2499 7.18747H12.6874C12.0947 7.187 11.5153 7.36243 11.0224 7.69153C10.9883 7.71431 10.9589 7.74359 10.9361 7.7777C10.9133 7.8118 10.8974 7.85008 10.8894 7.89032C10.8813 7.93057 10.8813 7.97201 10.8893 8.01227C10.8972 8.05253 10.9131 8.09083 10.9358 8.12497C10.9586 8.15911 10.9879 8.18844 11.022 8.21127C11.0561 8.23409 11.0944 8.24998 11.1346 8.25802C11.1749 8.26606 11.2163 8.26609 11.2566 8.25811C11.2968 8.25014 11.3351 8.23431 11.3693 8.21153C11.7594 7.95092 12.2182 7.81203 12.6874 7.81247H16.2499C16.3328 7.81247 16.4123 7.77955 16.4709 7.72094C16.5295 7.66234 16.5624 7.58285 16.5624 7.49997C16.5624 7.41709 16.5295 7.3376 16.4709 7.279C16.4123 7.22039 16.3328 7.18747 16.2499 7.18747Z" fill="black"/>
<path d="M8.97594 9.25406C8.48352 8.92522 7.90463 8.7498 7.3125 8.75H3.75C3.66712 8.75 3.58763 8.78292 3.52903 8.84153C3.47042 8.90013 3.4375 8.97962 3.4375 9.0625C3.4375 9.14538 3.47042 9.22486 3.52903 9.28347C3.58763 9.34207 3.66712 9.375 3.75 9.375H7.3125C7.78171 9.37446 8.2405 9.51336 8.63063 9.77406C8.69958 9.82006 8.78399 9.83678 8.86527 9.82054C8.94656 9.80431 9.01806 9.75645 9.06406 9.6875C9.11006 9.61854 9.12678 9.53414 9.11055 9.45285C9.09432 9.37157 9.04646 9.30006 8.9775 9.25406H8.97594Z" fill="black"/>
<path d="M16.2499 8.74997H12.6874C12.0947 8.7495 11.5153 8.92493 11.0224 9.25403C10.9883 9.27681 10.9589 9.30609 10.9361 9.3402C10.9133 9.3743 10.8974 9.41258 10.8894 9.45282C10.8813 9.49307 10.8813 9.53451 10.8893 9.57477C10.8972 9.61503 10.9131 9.65333 10.9358 9.68747C10.9586 9.72161 10.9879 9.75094 11.022 9.77377C11.0561 9.79659 11.0944 9.81248 11.1346 9.82052C11.1749 9.82856 11.2163 9.82859 11.2566 9.82061C11.2968 9.81264 11.3351 9.79681 11.3693 9.77403C11.7594 9.51342 12.2182 9.37453 12.6874 9.37497H16.2499C16.3328 9.37497 16.4123 9.34205 16.4709 9.28344C16.5295 9.22484 16.5624 9.14535 16.5624 9.06247C16.5624 8.97959 16.5295 8.9001 16.4709 8.8415C16.4123 8.78289 16.3328 8.74997 16.2499 8.74997Z" fill="black"/>
<path d="M8.97594 10.8166C8.48352 10.4877 7.90463 10.3123 7.3125 10.3125H3.75C3.66712 10.3125 3.58763 10.3454 3.52903 10.404C3.47042 10.4626 3.4375 10.5421 3.4375 10.625C3.4375 10.7079 3.47042 10.7874 3.52903 10.846C3.58763 10.9046 3.66712 10.9375 3.75 10.9375H7.3125C7.78171 10.937 8.2405 11.0759 8.63062 11.3366C8.66477 11.3593 8.70306 11.3752 8.74332 11.3831C8.78359 11.3911 8.82502 11.3911 8.86527 11.383C8.90552 11.375 8.94379 11.3591 8.9779 11.3363C9.01201 11.3135 9.04129 11.2841 9.06406 11.25C9.08684 11.2159 9.10267 11.1776 9.11064 11.1373C9.11862 11.097 9.11859 11.0556 9.11055 11.0154C9.10251 10.9751 9.08662 10.9368 9.0638 10.9027C9.04097 10.8686 9.01164 10.8393 8.9775 10.8166H8.97594Z" fill="black"/>
<path d="M16.2499 10.3125H12.6874C12.0947 10.312 11.5153 10.4874 11.0224 10.8165C10.9534 10.8625 10.9056 10.934 10.8894 11.0153C10.8731 11.0966 10.8898 11.181 10.9358 11.25C10.9818 11.3189 11.0533 11.3668 11.1346 11.383C11.2159 11.3992 11.3003 11.3825 11.3693 11.3365C11.7594 11.0759 12.2182 10.937 12.6874 10.9375H16.2499C16.3328 10.9375 16.4123 10.9045 16.4709 10.8459C16.5295 10.7873 16.5624 10.7078 16.5624 10.625C16.5624 10.5421 16.5295 10.4626 16.4709 10.404C16.4123 10.3454 16.3328 10.3125 16.2499 10.3125Z" fill="black"/>
<path d="M8.97594 12.3791C8.48352 12.0502 7.90463 11.8748 7.3125 11.875H3.75C3.66712 11.875 3.58763 11.9079 3.52903 11.9665C3.47042 12.0251 3.4375 12.1046 3.4375 12.1875C3.4375 12.2704 3.47042 12.3499 3.52903 12.4085C3.58763 12.4671 3.66712 12.5 3.75 12.5H7.3125C7.78171 12.4995 8.2405 12.6384 8.63063 12.8991C8.69958 12.9451 8.78399 12.9618 8.86527 12.9456C8.94656 12.9293 9.01806 12.8815 9.06406 12.8125C9.11006 12.7435 9.12678 12.6591 9.11055 12.5779C9.09432 12.4966 9.04646 12.4251 8.9775 12.3791H8.97594Z" fill="black"/>
<path d="M16.2499 11.875H12.6874C12.0947 11.8745 11.5153 12.0499 11.0224 12.379C10.9883 12.4018 10.9589 12.4311 10.9361 12.4652C10.9133 12.4993 10.8974 12.5376 10.8894 12.5778C10.8813 12.6181 10.8813 12.6595 10.8893 12.6998C10.8972 12.74 10.9131 12.7783 10.9358 12.8125C10.9818 12.8814 11.0533 12.9293 11.1346 12.9455C11.1749 12.9535 11.2163 12.9536 11.2566 12.9456C11.2968 12.9376 11.3351 12.9218 11.3693 12.899C11.7594 12.6384 12.2182 12.4995 12.6874 12.5H16.2499C16.3328 12.5 16.4123 12.467 16.4709 12.4084C16.5295 12.3498 16.5624 12.2703 16.5624 12.1875C16.5624 12.1046 16.5295 12.0251 16.4709 11.9665C16.4123 11.9079 16.3328 11.875 16.2499 11.875Z" fill="black"/>
<path d="M7.3125 13.4375H3.75C3.66712 13.4375 3.58763 13.4704 3.52903 13.529C3.47042 13.5876 3.4375 13.6671 3.4375 13.75C3.4375 13.8328 3.47042 13.9123 3.52903 13.9709C3.58763 14.0295 3.66712 14.0625 3.75 14.0625H7.3125C7.78171 14.0619 8.2405 14.2008 8.63062 14.4615C8.66477 14.4843 8.70306 14.5001 8.74332 14.5081C8.78359 14.5161 8.82502 14.516 8.86527 14.508C8.90552 14.5 8.94379 14.4841 8.9779 14.4613C9.01201 14.4384 9.04129 14.4091 9.06406 14.375C9.08684 14.3408 9.10267 14.3025 9.11064 14.2623C9.11862 14.222 9.11859 14.1806 9.11055 14.1403C9.10251 14.1001 9.08662 14.0618 9.0638 14.0277C9.04097 13.9936 9.01164 13.9643 8.9775 13.9415C8.48464 13.6124 7.90516 13.437 7.3125 13.4375V13.4375Z" fill="black"/>
<path d="M16.2499 13.4375H12.6874C12.0947 13.437 11.5153 13.6124 11.0224 13.9415C10.9883 13.9643 10.9589 13.9936 10.9361 14.0277C10.9133 14.0618 10.8974 14.1001 10.8894 14.1403C10.8813 14.1806 10.8813 14.222 10.8893 14.2623C10.8972 14.3025 10.9131 14.3408 10.9358 14.375C10.9586 14.4091 10.9879 14.4384 11.022 14.4613C11.0561 14.4841 11.0944 14.5 11.1346 14.508C11.1749 14.516 11.2163 14.5161 11.2566 14.5081C11.2968 14.5001 11.3351 14.4843 11.3693 14.4615C11.7594 14.2009 12.2182 14.062 12.6874 14.0625H16.2499C16.3328 14.0625 16.4123 14.0295 16.4709 13.9709C16.5295 13.9123 16.5624 13.8328 16.5624 13.75C16.5624 13.6671 16.5295 13.5876 16.4709 13.529C16.4123 13.4704 16.3328 13.4375 16.2499 13.4375Z" fill="black"/>
</svg>
