<svg width="20" height="18" viewBox="0 0 20 18" fill="none" xmlns="http://www.w3.org/2000/svg">
<path d="M15.98 3.7764C16.08 3.7764 16.1799 3.73827 16.2562 3.66198C16.4087 3.50945 16.4087 3.2621 16.2562 3.10956L16.2551 3.10847C16.1025 2.95593 15.8558 2.95652 15.7032 3.10902C15.5507 3.26156 15.5513 3.50945 15.7038 3.66198C15.78 3.73827 15.88 3.7764 15.98 3.7764V3.7764Z" fill="black"/>
<path d="M19.8649 14.2844C19.5505 13.6554 18.7822 13.3995 18.152 13.7139C17.8073 13.8858 17.4459 14.0444 17.0706 14.19L15.5622 11.1883L17.1192 5.85764L18.4235 5.99909C19.1254 6.07569 19.6777 5.79358 19.9012 5.24464C20.1473 4.64042 19.9128 3.85542 19.3557 3.41862C19.3538 3.4171 19.3518 3.41561 19.3499 3.41413L15.2438 0.3178C14.936 0.0266676 14.5067 -0.0150121 14.1899 0.219207C14.1372 0.25823 14.0873 0.29991 14.0399 0.343699C13.0882 0.403308 12.3133 0.970183 11.6756 2.07218C11.1224 3.02796 10.7351 4.27061 10.3606 5.47233C10.2446 5.84436 10.1337 6.19971 10.0191 6.54464C9.31239 6.55296 8.59036 6.48483 8.0618 6.3694C7.58762 6.2653 6.84548 6.20776 6.35989 6.19288C5.6593 5.34214 4.83626 4.86241 4.02641 4.83753C3.28352 4.81448 2.56884 5.17253 1.95911 5.87237C1.11657 6.8394 0.936453 8.18436 0.687117 10.0459C0.627273 10.4926 0.565398 10.9546 0.488914 11.4583C0.466765 11.6042 0.528719 11.7501 0.648992 11.8355C0.716375 11.8833 0.795554 11.9076 0.875125 11.9076C0.937703 11.9076 1.00048 11.8926 1.0579 11.8621C1.30997 11.7287 1.56438 11.6291 1.81048 11.5327C2.30716 11.3382 2.81399 11.1392 3.17091 10.6867C3.41216 11.1982 3.77887 11.6605 4.25137 12.0234L3.12512 14.264C2.67942 14.0987 2.25204 13.9155 1.84782 13.7139C1.21759 13.3995 0.449226 13.6555 0.135008 14.284C-0.0171799 14.5877 -0.041594 14.9332 0.0662967 15.2568C0.174344 15.5809 0.401609 15.843 0.706336 15.9951C2.77368 17.0259 5.37079 17.6747 8.21688 17.8713C8.22606 17.8719 8.23516 17.8723 8.24423 17.8723C8.44766 17.8723 8.61927 17.7146 8.63348 17.5085C8.64837 17.2933 8.48594 17.1068 8.27075 17.0919C5.52626 16.9023 3.0311 16.2812 1.05501 15.2959C0.937273 15.2372 0.849383 15.1356 0.807429 15.0098C0.765633 14.8843 0.77489 14.7508 0.83364 14.6336C0.955554 14.3897 1.25407 14.2907 1.49911 14.413C6.187 16.7506 13.8139 16.7506 18.5007 14.413C18.7457 14.2907 19.0442 14.3897 19.1663 14.6339C19.2251 14.7513 19.2344 14.885 19.1925 15.0105C19.1506 15.1359 19.0627 15.2372 18.9447 15.2959C16.9674 16.2824 14.4712 16.9034 11.7259 17.0919C11.5106 17.1067 11.3481 17.2932 11.3629 17.5083C11.3777 17.7236 11.564 17.8862 11.7794 17.8713C14.6265 17.6758 17.2249 17.027 19.2931 15.9951C19.598 15.8434 19.8254 15.5816 19.9335 15.2578C20.0416 14.9342 20.0172 14.5883 19.8649 14.2844V14.2844ZM18.8763 4.03553C19.1912 4.2844 19.2781 4.70346 19.1777 4.95003C19.0663 5.22343 18.7521 5.24913 18.5079 5.22249L16.8781 5.04573C16.6902 5.02561 16.5141 5.14284 16.461 5.32456L14.7691 11.1169C14.7414 11.2118 14.7507 11.3136 14.795 11.4019L16.3293 14.4547C15.8429 14.6141 15.3374 14.7532 14.8177 14.872L13.5395 12.4891C13.169 11.798 12.6809 11.5032 11.9076 11.5032H10.6351V9.78924C10.9722 9.71553 11.2824 9.54698 11.533 9.29604C11.8765 8.9521 12.0653 8.4969 12.0646 8.01456L12.0637 7.01346C12.9359 6.6337 13.1435 5.92491 13.3618 5.17823C13.4978 4.71323 13.6518 4.18659 13.98 3.60307C14.1059 3.40983 14.149 3.33421 14.1776 3.28389C14.203 3.23925 14.2116 3.22421 14.3231 3.07518C14.4196 2.94612 14.427 2.771 14.3416 2.63428C14.0434 2.15675 14.1276 1.24229 14.65 0.850613L18.8763 4.03553ZM8.7152 9.83171H9.85395V11.5031H8.7152V9.83171ZM11.1063 5.70479C11.6971 3.80921 12.3049 1.85964 13.4786 1.28702C13.334 1.80014 13.366 2.36065 13.554 2.80604C13.5334 2.83737 13.5178 2.86378 13.4987 2.89737C13.4742 2.94042 13.4372 3.00542 13.3189 3.18667C13.3144 3.19358 13.3101 3.20065 13.306 3.20788C12.9292 3.87421 12.7534 4.47561 12.6121 4.95889C12.3809 5.74944 12.2645 6.14753 11.5641 6.3669C11.3514 6.42382 11.1117 6.46585 10.8573 6.49483C10.9419 6.23214 11.0249 5.96593 11.1063 5.70479V5.70479ZM11.2827 7.22393L11.2834 8.01538C11.2838 8.28905 11.1761 8.5478 10.9802 8.74397C10.7829 8.94163 10.5216 9.0505 10.2446 9.0505H8.32462C7.75243 9.0505 7.28688 8.58589 7.28688 8.01483V7.04073C7.51407 7.06542 7.72903 7.0962 7.89469 7.13257C8.78247 7.32643 10.1804 7.40589 11.2827 7.22393V7.22393ZM1.52559 10.8053C1.47302 10.8259 1.41895 10.8471 1.36376 10.869C1.39809 10.6223 1.43001 10.3839 1.46137 10.1496C1.70122 8.35878 1.8597 7.17573 2.54809 6.38557C3.00524 5.86093 3.49423 5.60311 4.00239 5.61843C4.44591 5.63206 4.91102 5.85565 5.35278 6.26014C4.15837 6.48315 3.29048 7.22432 2.96626 8.33956C2.86325 8.69382 2.8252 9.05737 2.84548 9.41686C2.72286 10.3359 2.26954 10.514 1.52559 10.8053ZM5.10161 12.0714C5.16251 11.9503 5.15567 11.8063 5.08454 11.6909C5.05063 11.636 5.00419 11.5912 4.95024 11.5595C3.9018 10.8976 3.3945 9.66468 3.71637 8.5576C4.00997 7.5478 4.89294 6.97022 6.14071 6.97022C6.14907 6.97022 6.15755 6.97026 6.16591 6.9703C6.26165 6.971 6.37786 6.97448 6.50563 6.9805V8.01483C6.50563 8.88272 7.11817 9.60999 7.93399 9.78905V11.5326C7.38063 11.6224 6.99759 11.9224 6.69266 12.489L5.3895 14.9182C4.86837 14.8052 4.36079 14.672 3.87134 14.5188L5.10161 12.0714ZM6.19208 15.0747L7.38083 12.8588C7.61485 12.4239 7.84419 12.2843 8.32462 12.2843H11.9077C12.3889 12.2843 12.6182 12.4238 12.8511 12.8583L14.0196 15.0366C11.5027 15.5014 8.72341 15.5143 6.19208 15.0747V15.0747Z" fill="black"/>
<path d="M9.99755 17.1507C9.78181 17.1507 9.60693 17.3256 9.60693 17.5414C9.60693 17.7571 9.78181 17.932 9.99755 17.932H9.99978C10.2155 17.932 10.3893 17.7571 10.3893 17.5414C10.3893 17.3256 10.2133 17.1507 9.99755 17.1507Z" fill="black"/>
</svg>
